<svg xmlns="http://www.w3.org/2000/svg" width="256" height="256" viewBox="0 0 100 100"><rect width="100" height="100" rx="50" fill="#e6e6e6"></rect><path fill="#1e1b1b" d="M28.10 74L28.10 74Q23.90 74 20.63 72.17Q17.36 70.34 15.53 67.07Q13.70 63.80 13.70 59.60L13.70 59.60Q13.70 58.22 14.60 57.35Q15.50 56.48 16.82 56.48L16.82 56.48Q18.20 56.48 19.07 57.35Q19.94 58.22 19.94 59.60L19.94 59.60Q19.94 62.18 20.99 64.16Q22.04 66.14 23.87 67.25Q25.70 68.36 28.10 68.36L28.10 68.36Q30.50 68.36 32.36 67.25Q34.22 66.14 35.27 64.16Q36.32 62.18 36.32 59.60L36.32 59.60L36.32 29.66Q36.32 28.28 37.19 27.41Q38.06 26.54 39.38 26.54L39.38 26.54Q40.76 26.54 41.66 27.41Q42.56 28.28 42.56 29.66L42.56 29.66L42.56 59.60Q42.56 63.80 40.70 67.07Q38.84 70.34 35.60 72.17Q32.36 74 28.10 74ZM69.44 74L69.44 74Q65.60 74 62.12 72.80Q58.64 71.60 56.06 69.44Q53.48 67.28 52.28 64.46L52.28 64.46Q51.68 63.20 52.31 62.12Q52.94 61.04 54.44 60.74L54.44 60.74Q55.52 60.50 56.57 61.07Q57.62 61.64 58.16 62.78L58.16 62.78Q58.88 64.28 60.53 65.54Q62.18 66.80 64.52 67.58Q66.86 68.36 69.44 68.36L69.44 68.36Q72.32 68.36 74.75 67.46Q77.18 66.56 78.68 64.85Q80.18 63.14 80.18 60.62L80.18 60.62Q80.18 57.44 77.69 54.92Q75.20 52.40 69.50 51.80L69.50 51.80Q62.06 51.08 57.80 47.42Q53.54 43.76 53.54 38.36L53.54 38.36Q53.54 34.40 55.76 31.64Q57.98 28.88 61.79 27.44Q65.60 26.00 70.28 26.00L70.28 26.00Q73.94 26.00 76.67 27.02Q79.40 28.04 81.44 29.84Q83.48 31.64 84.98 34.10L84.98 34.10Q85.82 35.42 85.67 36.59Q85.52 37.76 84.50 38.42L84.50 38.42Q83.36 39.14 82.04 38.72Q80.72 38.30 80.06 37.16L80.06 37.16Q79.10 35.42 77.72 34.22Q76.34 33.02 74.48 32.33Q72.62 31.64 70.10 31.64L70.10 31.64Q65.66 31.58 62.66 33.29Q59.66 35.00 59.66 38.54L59.66 38.54Q59.66 40.34 60.59 41.99Q61.52 43.64 64.01 44.84Q66.50 46.04 71.18 46.52L71.18 46.52Q78.32 47.24 82.31 50.87Q86.30 54.50 86.30 60.44L86.30 60.44Q86.30 63.86 84.89 66.38Q83.48 68.90 81.11 70.61Q78.74 72.32 75.71 73.16Q72.68 74 69.44 74Z"></path></svg>